<svg width="47" height="53" viewBox="0 0 47 53" fill="none" xmlns="http://www.w3.org/2000/svg">
<path fill-rule="evenodd" clip-rule="evenodd" d="M26.9711 47.1219C27.1219 46.8606 27.3838 46.6825 27.6807 46.6292C38.6649 44.657 47 35.0519 47 23.5C47 10.5213 36.4787 0 23.5 0C10.5213 0 0 10.5213 0 23.5C0 34.6683 7.79078 44.0169 18.2341 46.4077C18.5116 46.4712 18.7533 46.6445 18.8956 46.891L22.134 52.5C22.5189 53.1667 23.4811 53.1667 23.866 52.5L26.9711 47.1219Z" fill="black"/>
<path d="M32.4342 31.4574H31.8685V16.4833C31.8685 15.3409 31.0225 14.4112 29.9826 14.4112H24.7965C23.7567 14.4112 22.9106 15.3409 22.9106 16.4833V19.2333C22.759 19.1978 22.6029 19.1729 22.4392 19.1729H17.2531C16.2133 19.1729 15.3672 19.9352 15.3672 20.8728V31.4573H14.5658C14.2534 31.4574 14 31.7109 14 32.0231C14 32.3354 14.2534 32.5889 14.5658 32.5889H32.4342C32.7465 32.5889 33 32.3355 33 32.0231C33 31.7108 32.7466 31.4574 32.4342 31.4574ZM16.8759 20.8728C16.8759 20.8174 17.0083 20.6816 17.2531 20.6816H22.4392C22.684 20.6816 22.8164 20.817 22.8164 20.8728V31.4574H16.8759V20.8728ZM24.4194 16.4833C24.4194 16.151 24.6181 15.9198 24.7966 15.9198H29.9827C30.1611 15.9198 30.3598 16.151 30.3598 16.4833V31.4574H24.4194V16.4833Z" fill="white"/>
<path d="M26.473 16.5576H25.5403C25.2389 16.5576 24.9941 16.802 24.9941 17.1037V18.0365C24.9941 18.3378 25.2385 18.5826 25.5403 18.5826H26.473C26.7744 18.5826 27.0192 18.3382 27.0192 18.0365V17.1037C27.0192 16.802 26.7744 16.5576 26.473 16.5576Z" fill="white"/>
<path d="M26.473 19.1978H25.5403C25.2389 19.1978 24.9941 19.4422 24.9941 19.744V20.6767C24.9941 20.9781 25.2385 21.2228 25.5403 21.2228H26.473C26.7744 21.2228 27.0192 20.9784 27.0192 20.6767V19.744C27.0192 19.4422 26.7744 19.1978 26.473 19.1978Z" fill="white"/>
<path d="M26.473 21.838H25.5403C25.2389 21.838 24.9941 22.0824 24.9941 22.3841V23.3169C24.9941 23.6183 25.2385 23.863 25.5403 23.863H26.473C26.7744 23.863 27.0192 23.6186 27.0192 23.3169V22.3841C27.0192 22.0824 26.7744 21.838 26.473 21.838Z" fill="white"/>
<path d="M29.2386 16.5576H28.3059C28.0045 16.5576 27.7598 16.802 27.7598 17.1037V18.0365C27.7598 18.3378 28.0042 18.5826 28.3059 18.5826H29.2386C29.54 18.5826 29.7848 18.3382 29.7848 18.0365V17.1037C29.7848 16.802 29.5404 16.5576 29.2386 16.5576Z" fill="white"/>
<path d="M29.2386 19.1978H28.3059C28.0045 19.1978 27.7598 19.4422 27.7598 19.744V20.6767C27.7598 20.9781 28.0042 21.2228 28.3059 21.2228H29.2386C29.54 21.2228 29.7848 20.9784 29.7848 20.6767V19.744C29.7848 19.4422 29.5404 19.1978 29.2386 19.1978Z" fill="white"/>
<path d="M29.2386 21.838H28.3059C28.0045 21.838 27.7598 22.0824 27.7598 22.3841V23.3169C27.7598 23.6183 28.0042 23.863 28.3059 23.863H29.2386C29.54 23.863 29.7848 23.6186 29.7848 23.3169V22.3841C29.7848 22.0824 29.5404 21.838 29.2386 21.838Z" fill="white"/>
<path d="M26.473 24.4782H25.5403C25.2389 24.4782 24.9941 24.7226 24.9941 25.0244V25.9571C24.9941 26.2585 25.2385 26.5032 25.5403 26.5032H26.473C26.7744 26.5032 27.0192 26.2589 27.0192 25.9571V25.0244C27.0192 24.7226 26.7744 24.4782 26.473 24.4782Z" fill="white"/>
<path d="M26.473 27.1184H25.5403C25.2389 27.1184 24.9941 27.3628 24.9941 27.6645V28.5973C24.9941 28.8987 25.2385 29.1434 25.5403 29.1434H26.473C26.7744 29.1434 27.0192 28.899 27.0192 28.5973V27.6645C27.0192 27.3628 26.7744 27.1184 26.473 27.1184Z" fill="white"/>
<path d="M29.2386 24.4782H28.3059C28.0045 24.4782 27.7598 24.7226 27.7598 25.0244V25.9571C27.7598 26.2585 28.0042 26.5032 28.3059 26.5032H29.2386C29.54 26.5032 29.7848 26.2589 29.7848 25.9571V25.0244C29.7848 24.7226 29.5404 24.4782 29.2386 24.4782Z" fill="white"/>
<path d="M29.2386 27.1184H28.3059C28.0045 27.1184 27.7598 27.3628 27.7598 27.6645V28.5973C27.7598 28.8987 28.0042 29.1434 28.3059 29.1434H29.2386C29.54 29.1434 29.7848 28.899 29.7848 28.5973V27.6645C29.7848 27.3628 29.5404 27.1184 29.2386 27.1184Z" fill="white"/>
<path d="M18.93 21.838H17.9973C17.6959 21.838 17.4512 22.0824 17.4512 22.3841V23.3169C17.4512 23.6183 17.6956 23.863 17.9973 23.863H18.9301C19.2314 23.863 19.4762 23.6186 19.4762 23.3169V22.3841C19.4762 22.0824 19.2314 21.838 18.93 21.838Z" fill="white"/>
<path d="M21.6957 21.838H20.7629C20.4616 21.838 20.2168 22.0824 20.2168 22.3841V23.3169C20.2168 23.6183 20.4612 23.863 20.7629 23.863H21.6957C21.9971 23.863 22.2418 23.6186 22.2418 23.3169V22.3841C22.2418 22.0824 21.9974 21.838 21.6957 21.838Z" fill="white"/>
<path d="M18.93 24.4782H17.9973C17.6959 24.4782 17.4512 24.7226 17.4512 25.0244V25.9571C17.4512 26.2585 17.6956 26.5032 17.9973 26.5032H18.9301C19.2314 26.5032 19.4762 26.2589 19.4762 25.9571V25.0244C19.4762 24.7226 19.2314 24.4782 18.93 24.4782Z" fill="white"/>
<path d="M18.93 27.1184H17.9973C17.6959 27.1184 17.4512 27.3628 17.4512 27.6645V28.5973C17.4512 28.8987 17.6956 29.1434 17.9973 29.1434H18.9301C19.2314 29.1434 19.4762 28.899 19.4762 28.5973V27.6645C19.4762 27.3628 19.2314 27.1184 18.93 27.1184Z" fill="white"/>
<path d="M21.6957 24.4782H20.7629C20.4616 24.4782 20.2168 24.7226 20.2168 25.0244V25.9571C20.2168 26.2585 20.4612 26.5032 20.7629 26.5032H21.6957C21.9971 26.5032 22.2418 26.2589 22.2418 25.9571V25.0244C22.2418 24.7226 21.9974 24.4782 21.6957 24.4782Z" fill="white"/>
<path d="M21.6957 27.1184H20.7629C20.4616 27.1184 20.2168 27.3628 20.2168 27.6645V28.5973C20.2168 28.8987 20.4612 29.1434 20.7629 29.1434H21.6957C21.9971 29.1434 22.2418 28.899 22.2418 28.5973V27.6645C22.2418 27.3628 21.9974 27.1184 21.6957 27.1184Z" fill="white"/>
</svg>
